:FULLY-SPECIFIED
:FORCE-ALL-JOINTS-BE-3DOF
:DEGREES
849
root 3.97418 16.3427 28.4429 -9.21799 6.29521 -1.95981
lfemur -22.3402 2.44473 -15.5367
ltibia 36.5494 -0 0
lfoot -3.45619 -16.7314 0.166527
ltoes 4.63066 -0 0
rfemur -28.145 -6.82316 3.73909
rtibia 75.2364 -0 0
rfoot 24.2519 12.9021 -0.558514
rtoes -15.793 0 0
lowerback 3.5959 2.75794 -1.15464
upperback 0.917478 3.63843 0.470742
thorax -1.06885 1.83161 1.28699
lowerneck -6.38042 -3.63199 2.81263
upperneck 9.55048 -5.36289 1.79963
head 4.23139 -2.45172 -0.183661
lclavicle 2.99171e-14 -9.14409e-15 0
lhumerus -49.3251 -10.1645 84.1086
lradius 54.3124 -0 0
lwrist 19.0535 0 0
lhand -0.390501 4.34554 0.00263144
lfingers 7.12502 -0 0
lthumb 25.2052 32.5914 -0.0348541
rclavicle 2.99171e-14 -9.14409e-15 0
rhumerus -40.2875 13.472 -66.5243
rradius 52.9207 -0 0
rwrist 5.87396 0 0
rhand -28.177 -27.1194 -0.257729
rfingers 7.12502 -0 0
rthumb -1.55522 -57.0162 -0.250654
850
root 3.98627 16.3613 28.4932 -9.87761 7.40175 -1.78797
lfemur -21.371 2.78356 -16.1092
ltibia 36.6109 -0 0
lfoot -3.50202 -17.9664 0.177586
ltoes 5.99961 -0 0
rfemur -31.1566 -6.60291 3.77246
rtibia 74.7326 -0 0
rfoot 23.5342 12.1136 -0.504963
rtoes -14.5574 0 0
lowerback 4.40743 2.34467 -1.4896
upperback 1.19931 3.06263 0.363208
thorax -1.22352 1.54584 1.37861
lowerneck -6.39405 -3.63752 2.77045
upperneck 9.55229 -5.37867 1.91483
head 4.23866 -2.45501 -0.13904
lclavicle 2.99171e-14 -9.14409e-15 0
lhumerus -48.2555 -11.1721 83.8459
lradius 54.4286 -0 0
lwrist 19.3729 0 0
lhand 0.317269 4.3307 0.00339964
lfingers 7.12502 -0 0
lthumb 25.8825 32.4729 -0.0360295
rclavicle 2.99171e-14 -9.14409e-15 0
rhumerus -41.258 11.9763 -64.983
rradius 52.6618 -0 0
rwrist 5.58015 0 0
rhand -27.2117 -27.3851 -0.275021
rfingers 7.12502 -0 0
rthumb -0.623211 -57.2661 -0.265866
851
root 3.99347 16.3807 28.5327 -10.5265 8.51867 -1.63251
lfemur -20.4035 3.1297 -16.6527
ltibia 36.6319 -0 0
lfoot -3.55803 -19.1701 0.184969
ltoes 7.44022 -0 0
rfemur -34.1857 -6.33359 3.82333
rtibia 74.0929 -0 0
rfoot 22.6975 11.2506 -0.439093
rtoes -13.3069 0 0
lowerback 5.23701 1.93218 -1.82478
upperback 1.4879 2.48213 0.24878
thorax -1.37939 1.25759 1.46407
lowerneck -6.40622 -3.63852 2.72808
upperneck 9.5341 -5.38794 2.03301
head 4.23913 -2.45539 -0.0930266
lclavicle 2.99171e-14 -9.14409e-15 0
lhumerus -47.1549 -12.1966 83.5689
lradius 54.5434 -0 0
lwrist 19.7006 0 0
lhand 1.03153 4.31789 0.00419609
lfingers 7.12502 -0 0
lthumb 26.5659 32.3551 -0.0360276
rclavicle 2.99171e-14 -9.14409e-15 0
rhumerus -42.2453 10.5188 -63.4671
rradius 52.4254 -0 0
rwrist 5.25966 0 0
rhand -26.1725 -27.6492 -0.285749
rfingers 7.12502 -0 0
rthumb 0.380021 -57.5123 -0.274708
852
root 3.99661 16.4009 28.5648 -11.1584 9.63357 -1.49475
lfemur -19.4479 3.4786 -17.1615
ltibia 36.6126 -0 0
lfoot -3.6234 -20.3297 0.188375
ltoes 8.93619 -0 0
rfemur -37.199 -6.01707 3.88703
rtibia 73.3255 -0 0
rfoot 21.7515 10.323 -0.365923
rtoes -12.0551 0 0
lowerback 6.0755 1.52499 -2.15676
upperback 1.7802 1.90329 0.128641
thorax -1.53475 0.969942 1.54254
lowerneck -6.41682 -3.63503 2.68598
upperneck 9.49633 -5.39061 2.15288
head 4.23286 -2.45288 -0.0461319
lclavicle 2.99171e-14 -9.14409e-15 0
lhumerus -46.0343 -13.2263 83.2793
lradius 54.6555 -0 0
lwrist 20.0328 0 0
lhand 1.74451 4.30724 0.00497575
lfingers 7.12502 -0 0
lthumb 27.2481 32.2394 -0.0348644
rclavicle 2.99171e-14 -9.14409e-15 0
rhumerus -43.2365 9.11435 -61.9919
rradius 52.2138 -0 0
rwrist 4.91623 0 0
rhand -25.0715 -27.9088 -0.289435
rfingers 7.12502 -0 0
rthumb 1.44286 -57.7519 -0.276823
853
root 3.99657 16.4216 28.5928 -11.7669 10.734 -1.37552
lfemur -18.5143 3.82538 -17.6304
ltibia 36.5532 -0 0
lfoot -3.6973 -21.4328 0.187585
ltoes 10.4712 -0 0
rfemur -40.1631 -5.65559 3.95954
rtibia 72.4388 -0 0
rfoot 20.7063 9.34027 -0.290219
rtoes -10.8157 0 0
lowerback 6.91371 1.12741 -2.48185
upperback 2.0731 1.33245 0.00409785
thorax -1.68784 0.68601 1.61314
lowerneck -6.42575 -3.62708 2.64462
upperneck 9.43942 -5.3866 2.27312
head 4.21993 -2.44749 0.0011325
lclavicle 2.99171e-14 -9.14409e-15 0
lhumerus -44.9054 -14.2499 82.9797
lradius 54.7638 -0 0
lwrist 20.366 0 0
lhand 2.44846 4.29885 0.00568769
lfingers 7.12502 -0 0
lthumb 27.9216 32.1271 -0.0326159
rclavicle 2.99171e-14 -9.14409e-15 0
rhumerus -44.2176 7.77633 -60.5739
rradius 52.0294 -0 0
rwrist 4.5536 0 0
rhand -23.9208 -28.1609 -0.285836
rfingers 7.12502 -0 0
rthumb 2.55371 -57.9823 -0.272071
854
root 3.99419 16.4425 28.62 -12.3458 11.8075 -1.27516
lfemur -17.6125 4.16482 -18.0543
ltibia 36.454 -0 0
lfoot -3.77889 -22.4666 0.182464
ltoes 12.0291 -0 0
rfemur -43.0448 -5.25175 4.03767
rtibia 71.4412 -0 0
rfoot 19.5718 8.3123 -0.216358
rtoes -9.60229 0 0
lowerback 7.74233 0.743549 -2.79612
upperback 2.36344 0.775938 -0.123416
thorax -1.8369 0.40888 1.67497
lowerneck -6.43287 -3.61472 2.60444
upperneck 9.36381 -5.37581 2.39242
head 4.20041 -2.43925 0.0482538
lclavicle 2.99171e-14 -9.14409e-15 0
lhumerus -43.7803 -15.2563 82.6737
lradius 54.867 -0 0
lwrist 20.6966 0 0
lhand 3.1356 4.29283 0.00627666
lfingers 7.12502 -0 0
lthumb 28.579 32.0195 -0.0294158
rclavicle 2.99171e-14 -9.14409e-15 0
rhumerus -45.1732 6.51707 -59.2305
rradius 51.8745 -0 0
rwrist 4.17551 0 0
rhand -22.7322 -28.4024 -0.274945
rfingers 7.12502 -0 0
rthumb 3.70095 -58.2008 -0.26053
855
root 3.99031 16.4634 28.6499 -12.8885 12.8415 -1.19356
lfemur -16.7524 4.49148 -18.4283
ltibia 36.315 -0 0
lfoot -3.86738 -23.4185 0.17297
ltoes 13.5934 -0 0
rfemur -45.8111 -4.80846 4.11914
rtibia 70.341 -0 0
rfoot 18.3583 7.24897 -0.14819
rtoes -8.42854 0 0
lowerback 8.55195 0.377288 -3.09538
upperback 2.64801 0.240025 -0.252345
thorax -1.98014 0.141637 1.72709
lowerneck -6.4381 -3.59797 2.56591
upperneck 9.26993 -5.35817 2.50943
head 4.17436 -2.42818 0.0947183
lclavicle 2.99171e-14 -9.14409e-15 0
lhumerus -42.6715 -16.2346 82.3658
lradius 54.964 -0 0
lwrist 21.0209 0 0
lhand 3.79817 4.28931 0.0066848
lfingers 7.12502 -0 0
lthumb 29.2129 31.9177 -0.0254517
rclavicle 2.99171e-14 -9.14409e-15 0
rhumerus -46.087 5.3477 -57.9802
rradius 51.7513 -0 0
rwrist 3.7857 0 0
rhand -21.518 -28.6304 -0.257003
rfingers 7.12502 -0 0
rthumb 4.87299 -58.4044 -0.242496
856
root 3.98579 16.484 28.6857 -13.3885 13.8237 -1.13021
lfemur -15.9437 4.79973 -18.7478
ltibia 36.1366 -0 0
lfoot -3.96198 -24.2759 0.159152
ltoes 15.1479 -0 0
rfemur -48.4291 -4.32885 4.2027
rtibia 69.1466 -0 0
rfoot 17.076 6.1603 -0.0889319
rtoes -7.30805 0 0
lowerback 9.33309 0.0323174 -3.37524
upperback 2.92352 -0.269033 -0.381015
thorax -2.11579 -0.112644 1.76854
lowerneck -6.44131 -3.57687 2.52949
upperneck 9.1582 -5.3336 2.62285
head 4.14187 -2.4143 0.140011
lclavicle 2.99171e-14 -9.14409e-15 0
lhumerus -41.5922 -17.1741 82.0615
lradius 55.0534 -0 0
lwrist 21.3353 0 0
lhand 4.42842 4.28839 0.00685348
lfingers 7.12502 -0 0
lthumb 29.8158 31.8231 -0.0209594
rclavicle 2.99171e-14 -9.14409e-15 0
rhumerus -46.9418 4.27832 -56.8424
rradius 51.6622 -0 0
rwrist 3.3879 0 0
rhand -20.29 -28.8419 -0.232487
rfingers 7.12502 -0 0
rthumb 6.05823 -58.5904 -0.218482
857
root 3.98149 16.5041 28.7309 -13.8391 14.7415 -1.08424
lfemur -15.1962 5.08383 -19.0084
ltibia 35.9189 -0 0
lfoot -4.06191 -25.0261 0.141158
ltoes 16.6764 -0 0
rfemur -50.866 -3.81628 4.28824
rtibia 67.8663 -0 0
rfoot 15.7352 5.05642 -0.0410654
rtoes -6.25447 0 0
lowerback 10.0762 -0.287856 -3.6311
upperback 3.18665 -0.745011 -0.507642
thorax -2.24204 -0.350886 1.79831
lowerneck -6.44239 -3.55146 2.49564
upperneck 9.02907 -5.30203 2.73131
head 4.103 -2.39762 0.183618
lclavicle 2.99171e-14 -9.14409e-15 0
lhumerus -40.5559 -18.0648 81.767
lradius 55.1341 -0 0
lwrist 21.6362 0 0
lhand 5.01857 4.29019 0.00672538
lfingers 7.12502 -0 0
lthumb 30.3803 31.7368 -0.0162153
rclavicle 2.99171e-14 -9.14409e-15 0
rhumerus -47.7195 3.31819 -55.8375
rradius 51.6094 -0 0
rwrist 2.98587 0 0
rhand -19.0603 -29.0339 -0.202103
rfingers 7.12502 -0 0
rthumb 7.24509 -58.7562 -0.189199
858
root 3.97825 16.5234 28.7887 -14.2335 15.5824 -1.05452
lfemur -14.5196 5.33797 -19.2058
ltibia 35.6621 -0 0
lfoot -4.16645 -25.6565 0.119224
ltoes 18.1625 -0 0
rfemur -53.089 -3.27423 4.3768
rtibia 66.5085 -0 0
rfoot 14.3464 3.94755 -0.00626273
rtoes -5.28142 0 0
lowerback 10.7716 -0.579877 -3.85819
upperback 3.43398 -1.18171 -0.630346
thorax -2.3571 -0.570015 1.81541
lowerneck -6.44123 -3.52177 2.4648
upperneck 8.88296 -5.26342 2.83349
head 4.05783 -2.37818 0.225021
lclavicle 2.99171e-14 -9.14409e-15 0
lhumerus -39.5769 -18.8965 81.4898
lradius 55.2048 -0 0
lwrist 21.92 0 0
lhand 5.56086 4.29481 0.00624659
lfingers 7.12502 -0 0
lthumb 30.899 31.6603 -0.0115279
rclavicle 2.99171e-14 -9.14409e-15 0
rhumerus -48.4017 2.47599 -54.9863
rradius 51.5953 -0 0
rwrist 2.58333 0 0
rhand -17.8408 -29.2034 -0.166764
rfingers 7.12502 -0 0
rthumb 8.42199 -58.8989 -0.155543
859
root 3.97692 16.5418 28.8626 -14.5646 16.3342 -1.03971
lfemur -13.9237 5.55642 -19.336
ltibia 35.3665 -0 0
lfoot -4.27491 -26.1545 0.093681
ltoes 19.5899 -0 0
rfemur -55.0656 -2.70627 4.47063
rtibia 65.0816 -0 0
rfoot 12.92 2.84401 0.0146743
rtoes -4.40253 0 0
lowerback 11.4097 -0.840511 -4.05164
upperback 3.66206 -1.57297 -0.747169
thorax -2.45917 -0.766956 1.81878
lowerneck -6.43771 -3.48785 2.43746
upperneck 8.72029 -5.21772 2.92803
head 4.00642 -2.35599 0.263704
lclavicle 2.99171e-14 -9.14409e-15 0
lhumerus -38.6701 -19.6596 81.2377
lradius 55.2644 -0 0
lwrist 22.1831 0 0
lhand 6.04753 4.30236 0.00536895
lfingers 7.12502 -0 0
lthumb 31.3645 31.5946 -0.00722718
rclavicle 2.99171e-14 -9.14409e-15 0
rhumerus -48.97 1.7602 -54.3099
rradius 51.6222 -0 0
rwrist 2.18402 0 0
rhand -16.6437 -29.3475 -0.127573
rfingers 7.12502 -0 0
rthumb 9.57738 -59.0159 -0.118567
860
root 3.97836 16.5589 28.9559 -14.8252 16.9845 -1.0384
lfemur -13.4182 5.73355 -19.3948
ltibia 35.0323 -0 0
lfoot -4.38663 -26.5074 0.0649481
ltoes 20.9423 -0 0
rfemur -56.763 -2.11611 4.57318
rtibia 63.5939 -0 0
rfoot 11.4666 1.75609 0.0218531
rtoes -3.63143 0 0
lowerback 11.9808 -1.06659 -4.20648
upperback 3.86741 -1.91264 -0.856092
thorax -2.54647 -0.938628 1.8074
lowerneck -6.43172 -3.44971 2.41406
upperneck 8.5415 -5.16492 3.01357
head 3.94883 -2.33108 0.29915
lclavicle 2.99171e-14 -9.14409e-15 0
lhumerus -37.8506 -20.3446 81.0193
lradius 55.3115 -0 0
lwrist 22.4218 0 0
lhand 6.47081 4.31296 0.00405248
lfingers 7.12502 -0 0
lthumb 31.7693 31.5411 -0.00365232
rclavicle 2.99171e-14 -9.14409e-15 0
rhumerus -49.406 1.1795 -53.8296
rradius 51.6924 -0 0
rwrist 1.7917 0 0
rhand -15.4807 -29.4635 -0.0857856
rfingers 7.12502 -0 0
rthumb 10.6997 -59.1047 -0.0794563
861
root 3.98342 16.5746 29.0719 -15.0081 17.521 -1.04922
lfemur -13.0131 5.86394 -19.378
ltibia 34.6597 -0 0
lfoot -4.50098 -26.7025 0.0335273
ltoes 22.2035 -0 0
rfemur -58.1487 -1.50763 4.68911
rtibia 62.0537 -0 0
rfoot 9.99654 0.694106 0.0163083
rtoes -2.98176 0 0
lowerback 12.4751 -1.25497 -4.31768
upperback 4.04649 -2.19459 -0.955066
thorax -2.61721 -1.08194 1.78021
lowerneck -6.42313 -3.40741 2.39507
upperneck 8.34699 -5.10501 3.08876
head 3.88515 -2.30349 0.330838
lclavicle 2.99171e-14 -9.14409e-15 0
lhumerus -37.1342 -20.9423 80.8438
lradius 55.3451 -0 0
lwrist 22.6325 0 0
lhand 6.82294 4.32672 0.00226803
lfingers 7.12502 -0 0
lthumb 32.106 31.5009 -0.00113818
rclavicle 2.99171e-14 -9.14409e-15 0
rhumerus -49.692 0.743291 -53.5666
rradius 51.8082 -0 0
rwrist 1.41008 0 0
rhand -14.3639 -29.5484 -0.042777
rfingers 7.12502 -0 0
rthumb 11.7774 -59.1625 -0.0394891
